<svg fill="none" height="25" preserveAspectRatio="xMidYMid meet" stroke="#FFFFFF" stroke-width="1.7" viewBox="0 0 24 24" width="25" xmlns="http://www.w3.org/2000/svg">
<path d="M18 18.72a9.094 9.094 0 0 0 3.741-.479 3 3 0 0 0-4.682-2.72m.941 3.199.001.031c0 .225-.012.447-.037.666A11.944 11.944 0 0 1 12 21c-2.17 0-4.207-.576-5.963-1.584A6.062 6.062 0 0 1 6 18.719m12 0a5.971 5.971 0 0 0-.941-3.197m0 0A5.995 5.995 0 0 0 12 12.75a5.995 5.995 0 0 0-5.058 2.772m0 0a3 3 0 0 0-4.682 2.72 9.094 9.094 0 0 0 3.741.479m.941-3.197A5.971 5.971 0 0 0 6 18.72M15 6.75a3 3 0 1 1-6 0 3 3 0 0 1 6 0Z" stroke-linecap="round" stroke-linejoin="round"/>
</svg>