<svg fill="none" height="25" preserveAspectRatio="xMidYMid meet" stroke="#FFFFFF" stroke-width="1.7" viewBox="0 0 24 24" width="25" xmlns="http://www.w3.org/2000/svg">
<path d="M8.25 18.75a1.5 1.5 0 0 1-3 0m3 0a1.5 1.5 0 0 0-3 0m3 0h6m-9 0H3.375a1.125 1.125 0 0 1-1.125-1.125V14.25m17.25 4.5a1.5 1.5 0 0 1-3 0m3 0a1.5 1.5 0 0 0-3 0m3 0h1.125c.621 0 1.125-.504 1.125-1.125V15.75L19.5 12h-4.5m-12.75 2.25V6.375c0-.621.504-1.125 1.125-1.125h11.25c.621 0 1.125.504 1.125 1.125v12.375" stroke-linecap="round" stroke-linejoin="round"/>
</svg>